<?xml version="1.0" encoding="UTF-8"?>
<svg xmlns="http://www.w3.org/2000/svg" viewBox="0 0 64 64">
  <defs>
    <linearGradient id="g" x1="0" y1="0" x2="1" y2="1">
      <stop offset="0" stop-color="#22c55e"/>
      <stop offset="1" stop-color="#16a34a"/>
    </linearGradient>
  </defs>
  <rect width="64" height="64" rx="19" fill="url(#g)"/>
  <g transform="translate(13.5,13.5) scale(1.542)" fill="none">
    <path
      d="M2 10.5a1.5 1.5 0 0 1 1.5-1.5H6l7.2-4.6A1 1 0 0 1 14.7 5.3V18.7a1 1 0 0 1-1.5.87L6 15H3.5A1.5 1.5 0 0 1 2 13.5v-3z"
      fill="white"/>
    <path d="M6 15v4.2a1 1 0 0 0 1 1h1a1 1 0 0 0 1-1V16" fill="white"/>
    <path d="M17.2 8.4c1.3 1 1.3 6.2 0 7.2" stroke="white" stroke-width="1.7" stroke-linecap="round"/>
    <path d="M19.6 6.2c2.5 2.3 2.5 9.3 0 11.6" stroke="white" stroke-width="1.7" stroke-linecap="round"/>
  </g>
</svg>
